# xmcd
#
# Track frame offsets:
#	150
#	16054
#	31775
#	47570
#	63222
#	78896
#	95007
#	109058
#	125070
#	140386
#	155531
#	170459
#	186231
#	200810
#	215240
#	228530
#	244247
#	258102
#	271185
#	285745
#	300049
#	314366
#	328391
#
# Disc length: 4563 seconds
# Revision: 1
# Processed by: cddbd v1.5.2PL0 Copyright (c) Steve Scherf et al.
# Submitted via: dBpowerAMP V12.0
#
DISCID=4611d117
DTITLE=Various Artist - Legends of Country Blues
DYEAR=2003
DGENRE=Blues
TTITLE0=Ishman Bracey with Rosie Mae Moore - Stranger Blues
TTITLE1=Ishman Bracey - Saturday Blues
TTITLE2=Ishman Bracey - Left Alone Blues
TTITLE3=Ishman Bracey - Leavin' Town Blues
TTITLE4=Ishman Bracey - Leavin' Town Blues
TTITLE5=Ishman Bracey - Brown Mama Blues
TTITLE6=Ishman Bracey - Brown Mama Blues
TTITLE7=Ishman Bracey - Trouble Hearted Blues
TTITLE8=Ishman Bracey - Trouble Hearted Blues
TTITLE9=Ishman Bracey - The Four Day Blues
TTITLE10=Ishman Bracey - The Four Day Blues
TTITLE11=Ishman Bracey and The New Orleans Nehi Boys - Jake Liquor Blues
TTITLE12=Ishman Bracey and The New Orleans Nehi Boys - Family Stirving
TTITLE13=Ishman Bracey and The New Orleans Nehi Boys - Mobile Stomp
TTITLE14=Ishman Bracey and The New Orleans Nehi Boys - Farish Street Rag
TTITLE15=Ishman Bracey - Woman, Woman Blues
TTITLE16=Ishman Bracey - Suitcase Full of Blues
TTITLE17=Ishman Bracey and The New Orleans Nehi Boys - Bust Up Blues
TTITLE18=Ishman Bracey and The New Orleans Nehi Boys - Pay Me No Mind
TTITLE19=Charley Taylor - Heavy Suitcase Blues
TTITLE20=Charley Taylor - Louisiana Bound
TTITLE21=Ishman Bracey - Too Damp to Be Wet
TTITLE22=Ishman Bracey - Where My Shoes At?
EXTD=
EXTT0=
EXTT1=
EXTT2=
EXTT3=
EXTT4=
EXTT5=
EXTT6=
EXTT7=
EXTT8=
EXTT9=
EXTT10=
EXTT11=
EXTT12=
EXTT13=
EXTT14=
EXTT15=
EXTT16=
EXTT17=
EXTT18=
EXTT19=
EXTT20=
EXTT21=
EXTT22=
PLAYORDER=
